<!-- Generator: Adobe Illustrator 24.0.1, SVG Export Plug-In  -->
<svg version="1.1" xmlns="http://www.w3.org/2000/svg" xmlns:xlink="http://www.w3.org/1999/xlink" x="0px" y="0px" width="37.84px"
	 height="41.29px" viewBox="0 0 37.84 41.29" style="enable-background:new 0 0 37.84 41.29;" xml:space="preserve">
<defs>
</defs>
<g>
	<path d="M33.16,41.29H23.07c-0.55,0-1-0.45-1-1v-11h-6.75v11c0,0.55-0.45,1-1,1H4.67C2.1,41.29,0,39.2,0,36.62V16.49
		c0-2.94,1.56-5.7,4.08-7.21l12-8.5c1.72-1.04,3.78-1.04,5.44-0.04l12.29,8.57c2.46,1.47,4.03,4.24,4.03,7.17v20.13
		C37.84,39.2,35.74,41.29,33.16,41.29z M24.07,39.29h9.09c1.47,0,2.67-1.2,2.67-2.67V16.49c0-2.24-1.19-4.35-3.11-5.5L20.44,2.42
		c-0.97-0.58-2.24-0.58-3.26,0.04l-12,8.5C3.19,12.14,2,14.25,2,16.49v20.13c0,1.47,1.2,2.67,2.67,2.67h8.65v-11c0-0.55,0.45-1,1-1
		h8.75c0.55,0,1,0.45,1,1V39.29z"/>
</g>
</svg>
