<!-- Generator: Adobe Illustrator 24.0.1, SVG Export Plug-In  -->
<svg version="1.1" xmlns="http://www.w3.org/2000/svg" xmlns:xlink="http://www.w3.org/1999/xlink" x="0px" y="0px" width="38.59px"
	 height="36.17px" viewBox="0 0 38.59 36.17" style="enable-background:new 0 0 38.59 36.17;" xml:space="preserve">
<defs>
</defs>
<g>
	<path d="M19.48,36.17L3.49,20.37c-4.66-4.66-4.66-12.23,0-16.89C7.77-0.8,14.76-1.15,19.47,2.54c4.66-3.67,11.37-3.33,15.63,0.94
		c4.65,4.65,4.65,12.23,0,16.88L19.48,36.17z M12.01,1.99c-2.59,0-5.18,0.97-7.11,2.9c-3.88,3.88-3.88,10.18,0,14.06l14.56,14.39
		l14.22-14.39c3.88-3.88,3.88-10.18,0-14.06c-3.78-3.78-9.6-3.91-13.54-0.3l-0.67,0.62L18.8,4.59C16.9,2.85,14.45,1.99,12.01,1.99z"
		/>
</g>
</svg>
