<!-- Generator: Adobe Illustrator 24.0.1, SVG Export Plug-In  -->
<svg version="1.1" xmlns="http://www.w3.org/2000/svg" xmlns:xlink="http://www.w3.org/1999/xlink" x="0px" y="0px" width="33.64px"
	 height="35.64px" viewBox="0 0 33.64 35.64" style="enable-background:new 0 0 33.64 35.64;" xml:space="preserve">
<defs>
</defs>
<g>
	<g>
		<path d="M16.64,18c-4.96,0-9-4.04-9-9s4.04-9,9-9s9,4.04,9,9S21.61,18,16.64,18z M16.64,2c-3.86,0-7,3.14-7,7c0,3.86,3.14,7,7,7
			c3.86,0,7-3.14,7-7C23.64,5.14,20.5,2,16.64,2z"/>
	</g>
	<g>
		<path d="M1,35.64c-0.55,0-1-0.45-1-1v-2.4c0-6.8,5.53-12.33,12.33-12.33h8.98c6.8,0,12.33,5.53,12.33,12.33V33c0,0.55-0.45,1-1,1
			s-1-0.45-1-1v-0.76c0-5.7-4.63-10.33-10.33-10.33h-8.98C6.63,21.91,2,26.54,2,32.24v2.4C2,35.2,1.55,35.64,1,35.64z"/>
	</g>
</g>
</svg>
