
<!-- Generator: Adobe Illustrator 24.0.1, SVG Export Plug-In  -->
<svg version="1.1" xmlns="http://www.w3.org/2000/svg" xmlns:xlink="http://www.w3.org/1999/xlink" x="0px" y="0px" width="34.86px"
	 height="34.86px" viewBox="0 0 34.86 34.86" style="enable-background:new 0 0 34.86 34.86;" xml:space="preserve">
<defs>
</defs>
<path d="M34.49,32.7L24.34,22.55c1.98-2.39,3.18-5.45,3.18-8.79C27.52,6.17,21.35,0,13.76,0C6.17,0,0,6.17,0,13.76
	c0,7.59,6.17,13.76,13.76,13.76c3.34,0,6.4-1.2,8.79-3.18L32.7,34.49c0.25,0.25,0.57,0.37,0.9,0.37s0.65-0.12,0.9-0.37
	C34.99,34,34.99,33.2,34.49,32.7z M2.53,13.76c0-6.19,5.04-11.23,11.23-11.23c6.19,0,11.23,5.04,11.23,11.23
	s-5.04,11.23-11.23,11.23C7.57,24.98,2.53,19.95,2.53,13.76z"/>
</svg>
